<svg xmlns="http://www.w3.org/2000/svg" fill="none" viewBox="30 0 200 70"><path fill="#009779" d="M128.591 35.404c-1.314 0-2.41-.365-3.067-1.023-.73-.657-1.095-1.68-1.095-2.921 0-1.242.365-2.19 1.095-2.921.73-.658 1.753-1.023 3.067-1.023h8.764v-.584c0-1.022-.511-1.534-1.46-1.534h-9.787V22.55h10.736c1.534 0 2.556.365 3.213 1.023.658.657.95 1.68.95 2.921v8.91h-12.416Zm.658-2.922h8.106v-2.117h-8.106c-.292 0-.585.073-.731.292-.146.219-.292.438-.292.73s.073.584.292.803c.146.22.439.293.731.293ZM146.119 35.404V22.55h3.579v12.854h-3.579ZM146.922 19.775a.81.81 0 0 1-.803-.803v-1.169a.81.81 0 0 1 .803-.803h1.972c.438 0 .804.365.804.803v1.169a.811.811 0 0 1-.804.803h-1.972ZM113.985 48.184c-.73-.803-1.607-1.533-2.41-1.972-1.68-.95-3.14-1.314-4.455-1.387 1.169.292 2.41.803 3.871 1.533 1.095.585 2.118 1.242 2.994 1.826Z"/><path fill="#41403F" d="M118.075 41.684c-.511-1.022-1.242-1.825-2.191-2.483-.511-.292-1.023-.584-1.534-.803a7.246 7.246 0 0 0-2.191-.365h-.657c1.241.292 2.556.803 3.944 1.68.949.657 1.825 1.241 2.629 1.971ZM110.845 46.504c-2.045-.949-3.724-1.168-5.258-.949 0 .292.073.511.146.803 1.388.293 2.921.95 4.674 1.972 1.534.95 2.775 1.826 3.725 2.775l1.095-.438c-1.022-1.68-2.775-3.36-4.382-4.163Z"/><path fill="#009779" d="M114.278 41.757c-2.995-1.68-5.405-1.606-7.084-1.46-.292.365-.584.73-.877 1.168 1.899.073 4.236.585 6.865 2.118 2.191 1.315 3.725 2.775 4.82 4.236a6.703 6.703 0 0 0 .658-1.68c-1.096-1.899-2.776-3.505-4.382-4.382Z"/><path fill="#41403F" d="M118.805 44.606c0-.439-.073-.877-.146-1.242a9.235 9.235 0 0 0-3.286-3.213c-2.045-1.242-4.017-1.607-5.842-1.534-.439.146-.804.438-1.242.657 1.68.22 3.433.804 5.55 1.826 2.118 1.023 3.725 2.191 4.966 3.506ZM109.604 48.841c-1.242-.584-2.337-.876-3.36-.949.219.365.438.657.657 1.022.804.292 1.68.658 2.483 1.169.731.365 1.315.803 1.899 1.314.292 0 .511.074.804.074h.657c-.876-1.169-2.045-2.118-3.14-2.63Z"/><path fill="#009779" d="M112.306 43.802c-2.264-1.095-4.09-1.46-5.77-1.314h-.292c-.146 0-.292.073-.438.073-.146.365-.219.803-.292 1.168 1.752.146 3.724.804 6.134 2.191 2.045 1.242 3.579 2.483 4.674 3.798.365-.292.658-.585.95-.95-.95-1.898-3.068-4.016-4.966-4.966Z"/><path fill="#41403F" d="M112.524 50.302c-.73-.73-1.533-1.388-2.264-1.826-1.533-.876-2.848-1.241-4.162-1.241 1.095.292 2.264.73 3.651 1.46 1.096.511 1.972 1.096 2.775 1.607ZM107.632 49.572a6.94 6.94 0 0 0 2.775 1.533c-.365-.365-.803-.584-1.168-.803a28.933 28.933 0 0 0-1.607-.73ZM133.192 49.864h3.067v-9.86h-3.067v9.86Zm-1.753-7.887v-1.972h-8.544v2.118h4.893l-5.477 5.696v2.045h9.347v-2.118h-5.696l5.477-5.77Zm29.943-1.972v5.477l-3.725-5.404h-9.494c-1.533 0-2.775.438-3.578 1.314-.876.877-1.315 2.045-1.315 3.652 0 .73.073 1.314.293 1.899l3.943.51a1.74 1.74 0 0 1-.803-.437c-.365-.365-.511-1.023-.511-1.9 0-.876.146-1.606.511-1.97.365-.366.803-.585 1.387-.585h6.719v7.303h2.848V44.46l3.652 5.404h2.848v-9.86h-2.775Zm-12.561 2.483c.292.073.584.219.803.511.365.365.511 1.095.511 1.899 0 .95-.146 1.606-.511 1.972-.365.365-.803.51-1.388.584h-7.303v-7.45h-2.994v9.86h10.371c1.022 0 1.898-.22 2.629-.584.73-.366 1.241-.95 1.606-1.68s.585-1.607.585-2.702c0-.73-.073-1.315-.293-1.899l-4.016-.511ZM86.817 49.864v-7.522h1.534v7.522h-1.534Zm.293 0v-1.169h3.578c.438 0 .803-.146 1.022-.365.22-.219.366-.584.366-1.095s-.146-.877-.366-1.096c-.219-.219-.584-.365-1.022-.365h-3.505v-1.168h3.505c.95 0 1.68.219 2.19.657.512.438.804 1.095.804 1.972 0 .876-.292 1.533-.803 1.972-.511.438-1.242.657-2.191.657h-3.579ZM95.8 52.2v-1.168h3.14c.439 0 .658-.219.658-.657v-.511h-3.213c-.585 0-1.096-.146-1.315-.438-.292-.293-.438-.73-.438-1.169v-3.724h1.533v3.578c0 .438.22.657.658.657h2.775v-4.162h1.534v6.061c0 .511-.146.877-.439 1.169-.292.292-.73.438-1.314.438H95.8V52.2Z"/><path fill="#009779" d="M158.461 35.404h-3.578v-8.91c0-1.242.292-2.191.949-2.921.657-.658 1.68-1.023 3.214-1.023h10.735v2.848h-9.786c-1.022 0-1.461.512-1.461 1.534l-.073 8.472Z"/><path fill="#656563" d="M167.444 35.404c-.365 0-.658-.073-1.023-.22-.292-.145-.584-.291-.803-.51-.219-.22-.365-.512-.511-.804a2.25 2.25 0 0 1-.219-.95c0-.364.073-.657.219-.949.146-.292.292-.584.511-.803.219-.22.511-.438.803-.511.292-.146.658-.22 1.023-.22.365 0 .657.074 1.022.22.292.146.584.292.804.511.219.22.365.511.511.803.146.293.219.658.219.95 0 .365-.073.657-.219.95-.146.291-.292.583-.511.802-.22.22-.512.439-.804.512-.365.146-.657.219-1.022.219Zm0-.511c.438 0 .73-.074 1.095-.22.292-.146.511-.438.658-.73.146-.292.219-.657.219-1.095 0-.438-.073-.804-.219-1.096-.147-.292-.366-.511-.658-.73-.292-.146-.657-.22-1.095-.22-.438 0-.731.074-1.023.22-.292.146-.511.438-.657.73-.146.292-.219.658-.219 1.096 0 .438.073.803.219 1.095.146.292.365.511.657.73.292.146.585.22 1.023.22Zm-1.169-.73v-2.557h1.607c.292 0 .511.073.657.22a.83.83 0 0 1 .219.584c0 .219-.073.365-.146.51-.073.147-.219.22-.438.293l.657 1.022h-.73l-.584-.95h-.584v.95h-.658v-.073Zm.585-1.461h.876c.146 0 .219 0 .292-.073.073-.073.073-.146.073-.22 0-.145 0-.219-.073-.292-.073-.073-.146-.073-.292-.073h-.876v.658ZM35.55 35.55c-4.308 0-5.55-1.534-5.55-6.573 0-5.04 1.315-6.573 5.55-6.573h7.157c4.31 0 5.55 1.534 5.55 6.573 0 5.04-1.314 6.573-5.55 6.573H35.55Zm5.916-2.337c1.168 0 1.68-.511 1.68-1.753v-4.966c0-1.241-.512-1.753-1.68-1.753h-4.747c-1.169 0-1.68.512-1.68 1.753v4.966c0 1.242.511 1.753 1.68 1.753h4.747ZM55.999 22.55h14.022c2.264 0 3.36 1.096 3.36 3.944s-1.096 3.944-3.36 3.944h-8.837v4.966h-5.112V22.55H56Zm12.27 3.506c0-.877-.293-1.169-1.096-1.169H61.11v3.214h6.062c.876 0 1.095-.293 1.095-1.169v-.876ZM118.659 30.073V22.55h2.41v12.854h-3.579l-10.662-7.596v7.523h-2.41V22.55h3.578l10.663 7.522ZM92.88 34.308c0-.365.292-.657.657-.657h2.776c.146 0 .292.073.365.146v-.73H86.015V30H96.24v-2.337H86.015v-2.776h10.736V22.55H80.83v12.854h12.05v-1.096Z"/><path fill="#009779" d="M94.194 36.5a.655.655 0 0 1-.657-.658v-.95c0-.365.292-.657.657-.657h1.607c.365 0 .657.292.657.658v.949a.654.654 0 0 1-.657.657h-1.607Z"/></svg>